<?xml version="1.0" standalone="no"?>
<!DOCTYPE svg PUBLIC "-//W3C//DTD SVG 20010904//EN"
 "http://www.w3.org/TR/2001/REC-SVG-20010904/DTD/svg10.dtd">
<svg version="1.0" xmlns="http://www.w3.org/2000/svg"
 width="500.000000pt" height="500.000000pt" viewBox="0 0 500.000000 500.000000"
 preserveAspectRatio="xMidYMid meet">

<g transform="translate(0.000000,500.000000) scale(0.100000,-0.100000)"
fill="#000000" stroke="none">
<path d="M3543 4789 c-6 -6 -29 -11 -53 -12 -33 -1 -44 -6 -50 -23 -5 -12 -20
-24 -33 -28 -14 -3 -27 -14 -31 -23 -3 -10 -14 -31 -25 -48 -11 -16 -20 -48
-20 -70 -1 -23 -6 -46 -11 -51 -8 -8 -7 -19 0 -39 8 -22 7 -31 -5 -45 -8 -9
-15 -27 -15 -39 0 -16 -11 -26 -42 -40 -39 -16 -45 -16 -66 -3 -31 20 -100 10
-180 -28 l-64 -30 -45 20 c-55 24 -98 25 -149 4 -28 -12 -56 -15 -99 -11 -33
3 -81 1 -106 -5 -42 -10 -52 -8 -95 13 -43 21 -61 23 -154 21 -58 -1 -125 2
-150 7 -25 6 -106 14 -180 19 -133 9 -135 9 -185 -16 -74 -38 -84 -42 -96 -42
-6 0 -37 -26 -68 -57 -70 -71 -114 -153 -141 -260 -7 -30 -6 -33 14 -33 12 0
37 11 56 25 19 14 40 25 46 25 28 0 65 25 84 57 11 19 24 32 29 29 21 -13 72
28 97 77 43 86 46 88 107 66 28 -10 62 -19 74 -19 12 0 25 -4 28 -10 3 -5 15
-10 25 -10 11 0 49 -13 85 -30 36 -16 73 -30 83 -30 10 0 23 -5 28 -10 6 -6
51 -13 100 -17 49 -3 104 -12 123 -19 18 -8 54 -14 80 -14 34 0 53 -6 73 -24
22 -18 44 -24 100 -29 118 -9 170 -32 220 -98 24 -31 62 -80 84 -110 52 -67
63 -132 33 -191 -11 -22 -19 -58 -19 -87 0 -28 -5 -61 -11 -75 -10 -20 -9 -30
5 -51 16 -24 16 -28 2 -44 -20 -22 -20 -45 -1 -61 22 -19 19 -30 -21 -66 -30
-28 -34 -36 -25 -53 16 -29 14 -31 -24 -31 -28 0 -46 -10 -83 -42 -26 -24 -49
-44 -51 -45 -3 -2 3 -20 13 -39 9 -20 16 -37 14 -39 -2 -1 -18 -8 -37 -15 -31
-13 -33 -15 -27 -52 5 -33 2 -45 -17 -68 -29 -34 -62 -156 -48 -174 5 -6 15
-32 21 -58 8 -30 21 -53 36 -63 16 -10 24 -25 24 -45 0 -26 7 -33 73 -65 58
-29 79 -35 109 -30 34 6 36 5 43 -24 8 -39 -13 -139 -37 -170 -10 -13 -18 -30
-18 -38 0 -14 -10 -39 -66 -176 -13 -32 -24 -65 -24 -73 0 -19 -51 -84 -66
-84 -6 0 -21 -11 -34 -25 -13 -14 -29 -25 -35 -25 -14 0 -25 -53 -25 -120 0
-64 -58 -149 -101 -150 -9 0 -36 -9 -60 -20 -24 -11 -56 -20 -71 -20 -21 0
-29 -8 -44 -42 -9 -24 -31 -52 -48 -63 -19 -13 -47 -51 -74 -100 -23 -44 -52
-89 -65 -100 -12 -11 -21 -28 -19 -39 3 -12 0 -16 -8 -11 -9 5 -10 1 -5 -15 5
-17 4 -21 -6 -15 -9 6 -11 2 -7 -13 4 -12 2 -20 -3 -16 -5 3 -9 -2 -9 -10 0
-9 -5 -16 -11 -16 -5 0 -7 -4 -4 -10 6 -10 -10 -29 -78 -100 -51 -52 -66 -62
-85 -56 -11 4 -31 -7 -54 -28 -21 -19 -40 -30 -43 -25 -11 17 -56 9 -118 -22
-78 -40 -102 -59 -104 -84 -1 -11 -4 -30 -8 -43 -6 -16 -3 -22 8 -22 23 0 31
-18 16 -37 -11 -13 -10 -17 4 -28 9 -7 17 -18 17 -25 0 -16 -19 -78 -32 -103
-5 -10 -6 -22 -3 -27 3 -4 1 -20 -5 -34 -8 -23 -7 -26 11 -26 22 0 40 -31 21
-38 -22 -7 -12 -22 14 -22 25 0 26 -2 20 -41 -6 -36 -5 -40 12 -35 12 4 28 -4
47 -24 48 -50 95 -36 114 35 6 22 11 54 11 72 0 17 4 35 10 38 5 3 14 25 20
48 6 23 18 61 26 85 15 40 18 43 45 37 20 -5 38 -1 56 10 23 15 25 22 20 68
-3 40 -1 55 14 71 11 11 19 28 19 37 0 11 6 16 18 13 12 -3 32 14 65 56 27 34
62 66 82 74 19 8 39 23 46 34 7 11 18 18 24 16 6 -3 35 18 64 46 29 27 58 50
65 50 7 0 21 9 31 20 10 11 31 20 47 20 20 0 31 6 37 23 5 12 30 44 56 72 25
27 48 61 52 75 9 40 40 77 73 88 33 12 45 3 35 -27 -4 -14 1 -20 24 -24 21 -4
30 -13 33 -29 2 -17 10 -23 28 -23 14 0 40 -10 59 -22 36 -23 38 -22 82 9 l25
19 -17 53 c-26 76 -34 176 -19 231 10 34 21 50 49 67 101 62 265 268 326 410
26 60 33 68 72 83 24 9 75 44 115 76 78 66 97 77 148 93 44 14 170 147 170
180 0 12 5 27 10 32 11 11 -54 145 -73 153 -6 2 -26 18 -45 35 -30 28 -34 39
-37 87 -2 31 -17 89 -34 132 -47 119 -43 142 39 202 27 20 53 48 56 61 3 13
10 24 15 24 5 0 9 13 9 30 0 16 9 54 20 84 12 32 18 64 15 79 -6 24 15 51 68
90 10 7 24 39 32 72 13 59 34 129 57 190 6 17 13 56 16 88 5 71 30 102 93 116
24 6 61 17 80 25 45 19 231 17 268 -3 23 -13 68 -10 121 8 14 5 51 17 83 27
31 10 57 21 57 25 0 4 9 9 20 12 30 8 27 57 -5 87 -14 13 -31 44 -37 68 -6 25
-20 49 -33 58 -12 8 -77 34 -145 59 -192 70 -243 107 -284 209 -19 47 -33 64
-74 92 -28 18 -53 38 -57 44 -3 5 -14 10 -24 10 -24 0 -114 48 -124 66 -12 21
-35 17 -62 -10 -27 -27 -25 -51 4 -59 11 -3 21 -18 25 -40 4 -19 14 -41 22
-48 18 -15 34 -50 27 -62 -2 -4 -11 0 -19 8 -19 19 -88 39 -108 32 -21 -8 -20
-26 2 -34 23 -9 68 -40 118 -83 23 -19 54 -43 69 -54 20 -13 24 -21 16 -29 -9
-9 -17 -8 -31 1 -11 6 -33 12 -50 12 -18 0 -33 6 -36 15 -5 11 -23 15 -76 15
-104 0 -110 6 -103 93 4 40 11 87 16 106 5 20 5 39 0 45 -5 6 -12 28 -16 49
-8 43 -75 120 -119 137 -37 14 -162 20 -173 9z"/>
<path d="M831 3328 c-6 -29 -42 -197 -79 -373 l-69 -320 50 -3 c27 -2 51 -2
53 0 2 2 28 120 59 263 30 142 57 260 58 261 2 2 32 -116 67 -261 l64 -265
138 0 c76 0 138 2 138 4 0 4 144 675 155 724 5 21 2 22 -49 22 l-55 0 -11 -57
c-7 -32 -32 -150 -56 -263 -24 -113 -44 -209 -44 -214 0 -30 -15 26 -65 249
-31 138 -58 258 -61 268 -5 15 -21 17 -144 17 l-139 0 -10 -52z"/>
<path d="M1595 3358 c-3 -13 -37 -171 -75 -353 -38 -181 -72 -340 -75 -353
l-6 -23 128 3 128 3 31 146 c17 80 34 158 38 172 6 27 6 27 106 27 l99 0 8 43
9 42 -98 3 c-54 1 -98 6 -98 10 0 15 41 195 46 204 3 4 59 8 125 8 94 0 119 3
119 14 0 7 3 28 6 45 l7 31 -247 0 -246 0 -5 -22z"/>
<path d="M2176 3372 c-6 -10 -156 -712 -156 -730 0 -9 61 -12 244 -12 l245 0
8 43 9 42 -118 3 c-65 1 -118 6 -118 11 0 5 11 58 25 119 14 61 25 113 25 116
0 3 45 6 99 6 55 0 102 3 104 8 2 4 7 24 11 45 l7 37 -101 0 c-92 0 -101 2
-96 18 2 9 12 53 21 97 9 44 19 88 22 98 4 15 19 17 123 17 131 0 123 -4 132
65 3 19 -3 20 -239 23 -133 1 -244 -1 -247 -6z"/>
<path d="M662 2531 c-16 -51 -14 -65 3 -21 l12 35 8 -37 c10 -53 38 -51 54 3
7 23 10 43 8 46 -3 2 -8 -9 -12 -26 -8 -38 -25 -31 -25 10 0 46 -34 39 -48
-10z"/>
<path d="M2606 2519 c-4 -28 -6 -53 -4 -54 2 -2 19 0 38 5 19 4 27 8 18 9 -10
1 -18 8 -18 16 0 7 8 19 18 24 16 10 16 10 0 11 -26 0 -22 28 5 33 14 3 9 5
-14 6 l-36 1 -7 -51z"/>
<path d="M766 2533 c-3 -16 -8 -38 -12 -49 -5 -18 -1 -22 25 -26 17 -2 31 -1
31 4 0 4 -4 8 -10 8 -18 0 -11 30 8 31 10 0 12 3 5 6 -21 8 -15 33 8 33 11 0
17 5 14 10 -3 6 -19 10 -34 10 -23 0 -30 -5 -35 -27z"/>
<path d="M2515 2544 c-10 -10 -15 -29 -13 -48 3 -29 6 -31 43 -31 30 0 41 4
43 18 4 22 -24 23 -32 0 -11 -28 -29 1 -21 36 7 32 25 43 25 15 0 -20 24 -13
28 9 5 23 -50 23 -73 1z"/>
<path d="M850 2500 c0 -42 3 -50 19 -50 10 0 22 8 26 18 6 15 8 14 16 -5 13
-35 36 -28 59 18 24 47 21 79 -3 34 l-16 -30 -1 33 c0 40 -23 43 -44 5 l-15
-28 -1 28 c0 20 -5 27 -20 27 -17 0 -20 -7 -20 -50z"/>
<path d="M2343 2543 c-17 -3 -23 -11 -23 -31 0 -15 -3 -37 -6 -49 -6 -21 -3
-23 32 -22 22 1 31 3 22 6 -10 2 -18 13 -18 23 0 10 8 21 18 23 16 4 16 5 0 6
-21 1 -13 31 8 31 8 0 14 5 14 10 0 10 -8 11 -47 3z"/>
<path d="M2400 2526 c0 -13 -3 -38 -7 -56 -4 -24 -3 -31 5 -26 7 4 12 22 13
39 l1 32 14 -32 c18 -43 54 -46 54 -5 0 15 3 37 6 50 4 13 2 22 -5 22 -6 0
-11 -15 -12 -32 l-1 -33 -14 33 c-17 39 -54 45 -54 8z"/>
<path d="M1031 2496 c-14 -56 -14 -56 3 -56 14 0 39 77 30 92 -11 18 -22 6
-33 -36z"/>
<path d="M2266 2518 c-10 -41 -7 -78 8 -78 15 0 26 30 26 73 0 33 -25 37 -34
5z"/>
<path d="M1116 2508 c-30 -42 -14 -78 35 -78 29 0 43 13 51 46 13 52 -55 77
-86 32z m50 -20 c-9 -43 -26 -60 -26 -26 0 34 9 58 22 58 6 0 8 -13 4 -32z"/>
<path d="M1230 2510 c-36 -36 -21 -90 25 -90 30 0 55 31 55 67 0 46 -44 59
-80 23z m50 -17 c-1 -24 -26 -68 -32 -57 -7 13 11 74 22 74 6 0 10 -8 10 -17z"/>
<path d="M2009 2523 c-18 -4 -29 -32 -29 -70 0 -13 -4 -23 -8 -23 -5 0 -13 10
-19 23 -7 16 -6 28 5 45 8 12 10 22 4 22 -5 0 -13 -8 -17 -17 -6 -17 -7 -17
-16 0 -7 12 -23 17 -59 17 -55 0 -57 -1 -66 -58 l-7 -42 34 1 c19 1 26 3 16 6
-14 4 -17 11 -13 26 3 12 6 30 6 40 0 11 8 17 25 17 18 0 26 -7 31 -26 4 -14
2 -30 -5 -37 -19 -19 -12 -31 8 -13 16 15 19 15 24 1 8 -21 87 -21 87 -1 0 8
12 21 28 28 26 13 45 58 24 58 -6 0 -16 2 -24 4 -7 2 -20 2 -29 -1z m31 -27
c0 -8 -4 -18 -10 -21 -5 -3 -10 3 -10 14 0 12 5 21 10 21 6 0 10 -6 10 -14z"/>
<path d="M2086 2518 c-3 -7 -7 -32 -10 -55 -6 -40 -5 -43 16 -43 13 0 30 5 38
10 13 8 12 10 -2 10 -10 0 -18 7 -18 15 0 8 7 15 15 15 8 0 15 5 15 11 0 5 -4
7 -10 4 -5 -3 -10 3 -10 14 0 11 8 22 18 24 9 3 2 5 -16 6 -18 0 -34 -4 -36
-11z"/>
<path d="M2166 2508 c-14 -69 -13 -78 5 -78 13 0 19 7 20 23 l0 22 11 -22 c6
-13 20 -23 30 -23 16 0 17 3 8 20 -8 14 -8 26 0 40 15 28 5 40 -35 40 -28 0
-36 -4 -39 -22z m54 3 c0 -6 -4 -13 -10 -16 -5 -3 -10 1 -10 9 0 9 5 16 10 16
6 0 10 -4 10 -9z"/>
<path d="M1339 2511 c11 -7 12 -17 4 -50 -10 -37 -9 -41 7 -41 13 0 21 13 29
44 7 28 18 46 28 49 10 3 -4 5 -32 6 -33 0 -45 -2 -36 -8z"/>
<path d="M1421 2483 c-17 -61 -16 -64 32 -61 38 3 42 5 42 30 1 15 4 30 8 34
12 13 -15 34 -44 34 -24 0 -30 -5 -38 -37z m54 18 c3 -5 1 -12 -5 -16 -5 -3
-10 1 -10 9 0 18 6 21 15 7z m-7 -53 c-2 -6 -10 -14 -16 -16 -7 -2 -10 2 -6
12 7 18 28 22 22 4z"/>
<path d="M1525 2470 c-14 -27 -21 -50 -15 -50 5 0 10 5 10 10 0 6 9 10 20 10
12 0 20 -7 20 -16 0 -9 7 -14 18 -12 9 2 17 9 16 16 -1 6 -2 30 -2 52 -2 33
-6 40 -22 40 -14 0 -27 -15 -45 -50z m30 1 c3 -5 1 -12 -5 -16 -5 -3 -10 1
-10 9 0 18 6 21 15 7z"/>
<path d="M1627 2513 c-3 -5 -8 -29 -12 -55 l-7 -48 31 0 c17 0 31 5 31 10 0 6
-6 10 -14 10 -12 0 -13 7 -5 32 5 18 9 39 9 45 0 14 -26 18 -33 6z"/>
<path d="M1693 2470 l-10 -50 36 1 c20 1 28 3 18 6 -11 3 -16 11 -13 21 17 64
17 72 -2 72 -15 0 -22 -11 -29 -50z"/>
<path d="M3396 955 c-21 -8 -46 -21 -54 -27 -13 -11 -10 -14 19 -19 l34 -6
-36 -2 c-41 -1 -57 -12 -98 -65 -22 -28 -31 -51 -32 -80 l-2 -41 -6 35 c-8 43
-18 29 -31 -42 -10 -51 -1 -140 14 -156 11 -10 25 19 32 67 4 23 9 39 13 33 3
-5 30 -15 60 -22 l54 -13 53 59 53 59 -6 60 c-3 33 -9 67 -14 76 -6 12 6 21
67 44 41 16 73 33 71 39 -6 17 -146 17 -191 1z m-159 -277 c-3 -8 -6 -5 -6 6
-1 11 2 17 5 13 3 -3 4 -12 1 -19z"/>
<path d="M3602 951 c2 -5 29 -37 60 -70 32 -34 54 -61 48 -61 -5 0 -23 -27
-41 -60 -23 -43 -37 -59 -48 -56 -9 3 -43 10 -76 16 l-60 10 -58 -59 -57 -59
20 -54 c11 -29 24 -60 29 -69 7 -12 1 -20 -27 -35 -19 -10 -41 -25 -48 -31
-10 -10 -25 1 -73 54 -63 68 -83 66 -33 -3 32 -44 140 -132 118 -95 -4 6 9 0
29 -13 45 -31 107 -41 165 -26 25 6 57 13 73 14 15 2 30 6 35 11 4 4 -2 5 -13
1 -15 -4 -25 3 -43 29 -12 19 -26 35 -31 35 -5 0 17 25 50 57 32 31 60 65 60
77 1 18 2 18 6 3 4 -16 13 -18 63 -15 37 2 56 0 50 -6 -6 -6 -10 -19 -10 -30
1 -18 3 -17 16 7 8 15 12 32 9 38 -4 5 -1 16 5 25 20 23 7 150 -19 204 -31 60
-86 116 -143 146 -51 26 -61 29 -56 15z m-105 -497 c-3 -3 -12 -4 -19 -1 -8 3
-5 6 6 6 11 1 17 -2 13 -5z m46 -11 c-7 -2 -19 -2 -25 0 -7 3 -2 5 12 5 14 0
19 -2 13 -5z"/>
</g>
</svg>
